<?xml version="1.0" encoding="UTF-8" standalone="no"?>
<!-- Created with Inkscape (http://www.inkscape.org/) -->
<svg
   xmlns:dc="http://purl.org/dc/elements/1.1/"
   xmlns:cc="http://web.resource.org/cc/"
   xmlns:rdf="http://www.w3.org/1999/02/22-rdf-syntax-ns#"
   xmlns:svg="http://www.w3.org/2000/svg"
   xmlns="http://www.w3.org/2000/svg"
   xmlns:sodipodi="http://sodipodi.sourceforge.net/DTD/sodipodi-0.dtd"
   xmlns:inkscape="http://www.inkscape.org/namespaces/inkscape"
   version="1.0"
   width="751"
   height="601"
   viewBox="0 0 750 599.99902"
   id="Layer_1"
   xml:space="preserve"
   sodipodi:version="0.32"
   inkscape:version="0.45"
   sodipodi:docname="I-305.svg"
   sodipodi:docbase="C:\Documents and Settings\ltljltlj\Desktop\Signs\Interstate Shields"
   inkscape:output_extension="org.inkscape.output.svg.inkscape"
   sodipodi:modified="true"><metadata
   id="metadata36"><rdf:RDF><cc:Work
       rdf:about=""><dc:format>image/svg+xml</dc:format><dc:type
         rdf:resource="http://purl.org/dc/dcmitype/StillImage" /></cc:Work></rdf:RDF></metadata><sodipodi:namedview
   inkscape:window-height="968"
   inkscape:window-width="1280"
   inkscape:pageshadow="2"
   inkscape:pageopacity="0.0"
   guidetolerance="10.0"
   gridtolerance="10.0"
   objecttolerance="10.0"
   borderopacity="1.0"
   bordercolor="#666666"
   pagecolor="#ffffff"
   id="base"
   width="751px"
   height="601px"
   inkscape:zoom="1.2866667"
   inkscape:cx="375"
   inkscape:cy="299.99952"
   inkscape:window-x="-4"
   inkscape:window-y="-4"
   inkscape:current-layer="Layer_1" /><defs
   id="defs62">

<style>
  .hey {
    font-size: 56px;
    font-weight: bold;
    font-family: 'Trebuchet MS', Gadget, sans-serif;
  }
</style>


</defs>
<g
   transform="matrix(0.9986685,0,0,0.9986701,0.4993342,0.3989715)"
   id="g5"
   style="fill:#ffffff;fill-opacity:1;stroke:#000000;stroke-width:0.99999899;stroke-miterlimit:4;stroke-dasharray:none;stroke-opacity:1">
		<path
   id="path7"
   style="fill:#ffffff;fill-opacity:1;stroke:#000000;stroke-width:0.99999899;stroke-miterlimit:4;stroke-dasharray:none;stroke-opacity:1"
   d="M 38.915039,0 C 92.236328,15.525391 148.625,23.849609 206.95801,23.849609 C 265.29053,23.849609 321.6792,15.525391 375,0.0004883 C 428.32031,15.525391 484.70898,23.849609 543.04199,23.849609 C 601.375,23.849609 657.76367,15.525391 711.08398,0 C 736.06445,54.121094 750,114.3877 750,177.90918 C 750,395.71777 586.16016,575.25391 375,599.99902 C 163.83887,575.25391 0,395.71777 0,177.90918 C 0,114.3877 13.935059,54.121094 38.915039,0 z " />

			<path
   id="path9"
   style="fill:#ffffff;fill-opacity:1;stroke:#000000;stroke-width:0.99999899;stroke-linecap:round;stroke-linejoin:round;stroke-miterlimit:4;stroke-dasharray:none;stroke-opacity:1"
   d="M 38.915039,0 C 92.236328,15.525391 148.625,23.849609 206.95801,23.849609 C 265.29053,23.849609 321.6792,15.525391 375,0.0004883 C 428.32031,15.525391 484.70898,23.849609 543.04199,23.849609 C 601.375,23.849609 657.76367,15.525391 711.08398,0 C 736.06445,54.121094 750,114.3877 750,177.90918 C 750,395.71777 586.16016,575.25391 375,599.99902 C 163.83887,575.25391 0,395.71777 0,177.90918 C 0,114.3877 13.935059,54.121094 38.915039,0 z " />
	</g><g
   transform="matrix(1.0056032,0,0,1.0101352,-2.1013652,-3.7018951)"
   id="g11"
   style="fill:#003f87;fill-opacity:1">
		<path
   id="path13"
   style="fill:#003f87;fill-opacity:1"
   d="M 15,177.90918 C 15,165.12744 15.584961,152.48242 16.729004,139.99902 L 733.27051,139.99902 C 734.41504,152.48242 735,165.12744 735,177.90918 C 735,387.42285 577.85547,560.22852 375,584.89062 C 172.14453,560.22852 15,387.42285 15,177.90918 z " />
	</g><g
   transform="matrix(1.00604,0,0,1.0270827,-2.2645005,-3.1522955)"
   id="g15"
   style="fill:#af1e2d;fill-opacity:1">
		<path
   id="path17"
   style="fill:#af1e2d;fill-opacity:1"
   d="M 47.37793,17.942871 C 98.270019,31.578125 151.76562,38.849121 206.95996,38.849121 C 265.2207,38.849121 321.58936,30.748047 375,15.611328 C 428.41113,30.748047 484.7793,38.849121 543.04004,38.849121 C 598.23438,38.849121 651.73047,31.578613 702.62109,17.942871 C 716.88281,51.567383 726.78516,87.489258 731.61719,124.99902 L 18.381836,124.99902 C 23.214844,87.489258 33.116211,51.567383 47.37793,17.942871 z " />
	</g>

<text class="hey" font-weight="bold" xml:space="preserve" text-anchor="start" font-family="'Trebuchet MS', Gadget, sans-serif" letter-spacing="1" font-size="2" id="svg_28" y="102" x="150" stroke-opacity="null" stroke-width="0" stroke="null" fill="#ffffff">VERSUS SYSTEMS</text>

<path
   style="font-size:373.12701416px;font-style:normal;font-variant:normal;font-weight:normal;font-stretch:normal;text-align:center;line-height:125%;writing-mode:lr-tb;text-anchor:middle;fill:#ffffff;fill-opacity:1;font-family:Roadgeek 2005 Series C"
   d="M 252.64001,380.07571 L 252.64001,440.43707 L 216.87579,440.43707 L 216.87579,380.07571 L 113.27896,380.07571 L 113.27896,354.72803 L 216.87579,190.76984 L 252.64001,190.76984 L 252.64001,346.52898 L 267.54839,346.52898 L 267.54839,380.07571 L 252.64001,380.07571 z M 216.87579,253.00754 L 157.2536,346.52898 L 216.87579,346.52898 L 216.87579,253.00754 z M 459.49251,315.23387 C 459.49234,334.3613 458.43665,350.63239 456.32546,364.04719 C 454.21394,377.46216 450.54655,390.13219 445.32327,402.05733 C 439.11415,416.96197 431.35291,427.82957 422.03958,434.66021 C 412.72598,441.49085 400.98843,444.90617 386.82689,444.90617 C 371.92221,444.90617 359.81129,441.49085 350.49409,434.66021 C 341.17676,427.82957 333.41364,416.96197 327.2047,402.05733 C 321.98881,389.88201 318.32522,377.14943 316.21388,363.85956 C 314.1025,350.56984 313.04682,334.3613 313.04684,315.23387 C 313.04682,296.35687 314.1025,280.14833 316.21388,266.60817 C 318.32522,253.06838 321.98881,240.33579 327.2047,228.4104 C 333.66382,213.50602 341.55203,202.7616 350.86936,196.1771 C 360.18655,189.59311 372.17239,186.30098 386.82689,186.30072 C 401.23102,186.30098 413.02922,189.59311 422.22153,196.1771 C 431.41356,202.7616 439.11415,213.75619 445.32327,229.16093 C 447.80975,235.37012 449.98554,241.57911 451.85067,247.78789 C 453.71548,253.99707 455.20708,260.51688 456.32546,267.34733 C 457.44352,274.17815 458.25091,281.50725 458.74765,289.33466 C 459.24405,297.16238 459.49234,305.79544 459.49251,315.23387 L 459.49251,315.23387 z M 425.20661,315.23387 C 425.20647,308.27448 425.02074,301.9385 424.6494,296.22596 C 424.27778,290.51368 423.78122,285.23528 423.15969,280.39077 C 422.5379,275.54655 421.73051,270.88981 420.73751,266.42054 C 419.74424,261.95161 418.62602,257.48062 417.38284,253.00754 C 414.15312,241.8255 410.11616,233.74965 405.2719,228.77998 C 400.42741,223.81074 394.27909,221.326 386.82689,221.32578 C 371.42185,221.326 360.86507,231.63639 355.15651,252.257 C 352.16946,261.69575 350.11876,271.19685 349.00438,280.76034 C 347.88989,290.32415 347.33267,302.0617 347.33273,315.97304 C 347.33267,322.6825 347.51842,328.83272 347.88995,334.42373 C 348.26138,340.01494 348.75794,345.23269 349.37965,350.07698 C 350.00125,354.92143 350.80865,359.70326 351.80184,364.42246 C 352.79491,369.14182 353.91313,373.98428 355.15651,378.9499 C 360.86507,399.57075 371.42185,409.88114 386.82689,409.88111 C 394.27909,409.88114 400.42741,407.39642 405.2719,402.42692 C 410.11616,397.4575 414.15312,389.63183 417.38284,378.9499 C 418.86862,373.98428 420.11003,369.20436 421.10709,364.61009 C 422.10388,360.01598 422.91128,355.23415 423.52928,350.26461 C 424.14701,345.29524 424.58103,340.01494 424.83134,334.42373 C 425.08139,328.83272 425.20647,322.4361 425.20661,315.23387 L 425.20661,315.23387 z M 636.72153,352.87443 C 636.72138,366.03543 634.73321,378.20511 630.75704,389.3835 C 626.78056,400.56199 621.31454,410.25073 614.35894,418.44974 C 607.40309,426.64881 599.20594,433.10797 589.76749,437.82724 C 580.32882,442.54653 570.01842,444.90617 558.83627,444.90617 C 547.66154,444.90617 536.91902,443.04309 526.60867,439.31694 C 516.29824,435.5908 506.54885,430.12667 497.36048,422.92454 L 520.83182,397.58824 C 527.04076,401.81098 532.75507,404.91548 537.97476,406.90171 C 543.19434,408.88801 548.90865,409.88114 555.1177,409.88111 C 561.81939,409.88114 568.02837,408.45209 573.74467,405.59396 C 579.46077,402.73589 584.3677,398.69892 588.46542,393.48302 C 592.56293,388.26723 595.79252,382.05824 598.15417,374.85606 C 600.51559,367.65402 601.69636,359.70516 601.69648,351.00946 C 601.69636,337.34069 598.58997,326.65693 592.37731,318.95812 C 586.16443,311.25955 577.84219,307.41022 567.41059,307.41009 C 556.47845,307.41022 546.54332,311.50784 537.60518,319.70297 L 503.31928,315.23387 L 509.65336,190.76984 L 627.03277,190.76984 L 627.03277,225.80626 L 542.81345,225.80626 L 540.20931,278.34385 C 546.41823,276.10755 551.44835,274.67851 555.29965,274.05668 C 559.15081,273.4352 563.43797,273.12436 568.16112,273.1242 C 578.34256,273.12436 587.65603,275.04998 596.10157,278.90106 C 604.54687,282.75245 611.75089,288.21848 617.71362,295.29914 C 623.67607,302.38011 628.33471,310.76488 631.68952,320.45351 C 635.04404,330.14237 636.72138,340.94934 636.72153,352.87443 L 636.72153,352.87443 z "
   id="text7029" />

</svg>
