<?xml version="1.0" encoding="utf-8"?>
<!-- Svg Vector Icons : http://www.onlinewebfonts.com/icon -->
<!DOCTYPE svg PUBLIC "-//W3C//DTD SVG 1.1//EN" "http://www.w3.org/Graphics/SVG/1.1/DTD/svg11.dtd">
<svg version="1.1" xmlns="http://www.w3.org/2000/svg" xmlns:xlink="http://www.w3.org/1999/xlink" x="0px" y="0px" viewBox="0 0 1000 1000" enable-background="new 0 0 1000 1000" xml:space="preserve">
<g fill="#959cb6"><g transform="translate(0.000000,512.000000) scale(0.100000,-0.100000)"><path d="M4822,5005c-113-28.7-208.7-84.2-628-365.7c-430.8-289.1-536.1-386.8-628-580.2c-88.1-181.9-95.7-252.7-97.7-762.1c0-501.6,7.7-549.5,90-587.8c32.5-15.3,463.3-21.1,1453.3-21.1h1409.2l55.5,55.5l55.5,55.5v486.3c0,266.1-9.6,522.7-21.1,570.6c-28.7,128.3-128.3,317.8-220.2,421.2c-88.1,95.7-863.5,624.2-1016.7,693.1C5174.3,5014.5,4933,5031.8,4822,5005z"/><path d="M9040.1,3339.2c-82.3-15.3-170.4-59.4-216.4-111.1c-19.2-21.1-162.8-308.3-317.9-637.6l-285.3-601.2l-580.1-233.6c-319.8-126.4-587.8-227.9-595.5-224c-5.7,3.8-36.4,53.6-68.9,109.1c-80.4,141.7-222.1,319.8-304.5,382.9l-70.8,51.7h-599.3h-601.2l-45.9-47.9l-47.9-46l3.8-3069.3l5.7-3069.3l95.7,3.8c254.6,9.6,764,227.8,1064.6,453.8c270,202.9,492.1,461.4,675.9,785l80.4,141.7l365.7-174.2l363.8-172.3l333.2-681.7c183.8-373.4,363.8-729.5,402.1-786.9c80.4-124.5,166.6-174.2,314-187.6c197.2-15.3,373.4,145.5,388.7,354.2l7.7,111.1L8996-3477.2c-310.2,624.2-430.8,852.1-486.3,907.6c-55.5,55.5-195.3,132.1-568.7,310.2l-495.9,235.5l3.8,589.7c1.9,323.6,7.6,591.7,11.5,595.5c3.8,3.8,202.9-5.7,442.3-23l434.6-32.6l476.8-463.3c264.2-254.7,505.5-478.7,538-495.9c34.5-19.2,105.3-32.5,162.8-34.5c281.5-1.9,465.3,275.7,350.4,526.5C9817.4-1258,8764.3-214.5,8666.7-174.3C8607.3-147.5,7749.5-70.9,7514-69c-61.3,0-63.2,1.9-63.2,82.3c0,124.5-34.5,384.9-78.5,593.6c-23,105.3-32.6,195.3-24.9,204.9c9.6,7.7,319.8,132.1,687.4,277.6c580.1,227.8,679.7,273.8,735.2,333.2c44,45.9,168.5,289.1,386.8,754.4c298.7,631.9,323.6,693.1,323.6,792.7C9480.4,3207.1,9273.7,3379.4,9040.1,3339.2z"/><path d="M774.3,3289.4c-114.9-67-178.1-181.9-178.1-319.8c0-99.6,24.9-160.8,323.6-792.7c218.3-465.3,342.7-708.4,386.8-754.4c55.5-59.4,149.3-103.4,654.8-302.5c325.5-128.3,620.4-245.1,654.8-258.5l63.2-26.8L2643,683.5c-42.1-172.3-93.8-541.9-93.8-668.2c0-82.3-1.9-84.2-61.3-84.2c-34.5,0-292.9-17.2-574.4-38.3c-348.5-24.9-534.2-45.9-582.1-67c-99.6-42.1-1146.9-1081.8-1196.7-1187.1c-114.9-247,68.9-526.5,346.6-526.5c53.6,0,124.5,13.4,158.9,30.6c34.5,17.2,277.6,241.2,541.9,497.8l480.6,465.3l434.6,32.6c239.3,17.2,438.5,26.8,442.3,23c3.8-3.8,9.6-271.9,11.5-595.5l1.9-589.7l-494-235.5c-369.5-178.1-515.1-256.6-570.6-310.2c-55.5-57.4-170.4-271.9-482.5-905.6c-358-725.7-409.7-842.5-409.7-921c0-189.6,155.1-360,342.7-379.1c78.5-7.7,116.8,1.9,203,44c134,65.1,160.8,111.1,580.2,968.8l312.1,641.4l365.7,174.3l365.7,174.2l95.7-164.6c262.3-459.5,631.9-802.3,1106.7-1026.3c210.6-101.5,486.3-183.8,620.4-189.6l95.7-3.8l5.7,3069.3l3.8,3069.3l-47.9,46l-46,47.9H4012c-572.5,0-587.8-1.9-662.5-42.1c-78.5-44-270-279.5-340.8-417.4l-38.3-72.8l-557.2,222.1l-557.2,224l-285.3,601.2c-157,331.2-300.6,618.5-317.8,639.5C1145.7,3346.8,917.9,3375.6,774.3,3289.4z"/></g></g>
</svg>
