<svg xmlns="http://www.w3.org/2000/svg" viewBox="0 110 1296.56 130"><defs><style>.cls-1{fill:#b1b1b5;}</style></defs><title>VS Long Black</title><g id="VS_Logo_Long" data-name="VS Logo Long"><g id="VS_Split" data-name="VS Split"><polygon class="cls-1" points="177.19 176.98 160.98 205.21 121.09 136.13 135.96 136.13 127.44 121.53 95.81 121.53 161.01 234.47 186.09 190.81 171.37 167.92 177.19 176.98"/><polygon class="cls-1" points="203.14 161.78 225.42 121.78 141.7 121.78 171.37 167.92 186.09 190.81 194.28 176.56 168.45 136.38 200.58 136.38 194 148.38 203.14 161.78"/></g><g id="Letterforms"><path class="cls-1" d="M355.76,147.39h45.31V159.1H369.39V173h31v11.71h-31v14.88h31.68v11.81H355.76Z"/><path class="cls-1" d="M438.61,188.48h-10v22.94H415v-64h29.95c13.34,0,21.5,8.74,21.5,20.64,0,11.33-7.1,17.38-14,19l14.4,24.38H451.18Zm4.32-29.37h-14.3v17.66h14.3c5.47,0,9.6-3.46,9.6-8.83S448.4,159.1,442.92,159.1Z"/><path class="cls-1" d="M483.05,192a28.07,28.07,0,0,0,20.35,8.64c7.49,0,11.13-3.55,11.13-7.2,0-4.8-5.57-6.43-13-8.16-10.46-2.4-23.9-5.28-23.9-19.58,0-10.66,9.21-19.29,24.29-19.29,10.17,0,18.62,3.07,25,8.93l-7.58,10a27.32,27.32,0,0,0-18.33-7c-6.14,0-9.41,2.69-9.41,6.53,0,4.32,5.38,5.66,12.77,7.39,10.56,2.4,24,5.57,24,19.77,0,11.71-8.35,20.54-25.63,20.54-12.29,0-21.12-4.13-27.17-10.18Z"/><path class="cls-1" d="M540.85,147.39h13.82v38c0,8.93,4.89,15.07,14.88,15.07,9.79,0,14.69-6.14,14.69-15.07v-38h13.82v38.4c0,15.93-9.12,26.78-28.51,26.78-19.58,0-28.7-10.94-28.7-26.69Z"/><path class="cls-1" d="M617.07,192a28.07,28.07,0,0,0,20.35,8.64c7.49,0,11.13-3.55,11.13-7.2,0-4.8-5.57-6.43-13-8.16-10.46-2.4-23.9-5.28-23.9-19.58,0-10.66,9.22-19.29,24.29-19.29,10.18,0,18.62,3.07,25,8.93l-7.58,10a27.32,27.32,0,0,0-18.33-7c-6.14,0-9.41,2.69-9.41,6.53,0,4.32,5.38,5.66,12.77,7.39,10.56,2.4,24,5.57,24,19.77,0,11.71-8.35,20.54-25.63,20.54-12.29,0-21.12-4.13-27.17-10.18Z"/><polygon class="cls-1" points="311.68 213.36 274.73 147.39 291.53 147.39 311.68 185.16 331.83 147.39 348.63 147.39 311.68 213.36"/></g><path class="cls-1" d="M712.38,193a28.07,28.07,0,0,0,20.35,8.64c7.49,0,11.13-3.55,11.13-7.2,0-4.8-5.57-6.43-13-8.16-10.46-2.4-23.9-5.28-23.9-19.58,0-10.66,9.22-19.29,24.29-19.29,10.17,0,18.62,3.07,25,8.93l-7.58,10a27.32,27.32,0,0,0-18.33-7c-6.14,0-9.41,2.69-9.41,6.53,0,4.32,5.38,5.66,12.77,7.39,10.56,2.4,24,5.57,24,19.77,0,11.71-8.35,20.54-25.63,20.54-12.29,0-21.12-4.13-27.17-10.18Z"/><path class="cls-1" d="M787.35,186.21l-24.67-37.82h15.55l15.93,25.73,15.74-25.73h15.55L801,186.21v26.21H787.35Z"/><path class="cls-1" d="M835.83,193a28.07,28.07,0,0,0,20.35,8.64c7.49,0,11.13-3.55,11.13-7.2,0-4.8-5.57-6.43-13-8.16-10.46-2.4-23.9-5.28-23.9-19.58,0-10.66,9.22-19.29,24.29-19.29,10.17,0,18.62,3.07,25,8.93l-7.58,10a27.32,27.32,0,0,0-18.33-7c-6.14,0-9.41,2.69-9.41,6.53,0,4.32,5.38,5.66,12.77,7.39,10.56,2.4,24,5.57,24,19.77,0,11.71-8.35,20.54-25.63,20.54-12.29,0-21.12-4.13-27.17-10.18Z"/><path class="cls-1" d="M907.74,160.39H889v-12h51.07v12H921.47v52H907.74Z"/><path class="cls-1" d="M952.09,148.39H997.4V160.1H965.72V174h31v11.71h-31v14.88H997.4v11.81H952.09Z"/><path class="cls-1" d="M1068.92,166.34l-18,46.08h-6l-18-46.08v46.08h-13.63v-64h19.1l15.55,39.93,15.55-39.93h19.2v64h-13.73Z"/><path class="cls-1" d="M1103.58,193a28.07,28.07,0,0,0,20.35,8.64c7.49,0,11.13-3.55,11.13-7.2,0-4.8-5.57-6.43-13-8.16-10.46-2.4-23.9-5.28-23.9-19.58,0-10.66,9.22-19.29,24.29-19.29,10.17,0,18.62,3.07,25,8.93l-7.58,10a27.32,27.32,0,0,0-18.33-7c-6.14,0-9.41,2.69-9.41,6.53,0,4.32,5.38,5.66,12.77,7.39,10.56,2.4,24,5.57,24,19.77,0,11.71-8.35,20.54-25.63,20.54-12.29,0-21.12-4.13-27.17-10.18Z"/></g></svg>
