<?xml version="1.0" encoding="utf-8"?>
<!-- Svg Vector Icons : http://www.onlinewebfonts.com/icon -->
<!DOCTYPE svg PUBLIC "-//W3C//DTD SVG 1.1//EN" "http://www.w3.org/Graphics/SVG/1.1/DTD/svg11.dtd">
<svg version="1.1" xmlns="http://www.w3.org/2000/svg" xmlns:xlink="http://www.w3.org/1999/xlink" x="0px" y="0px" viewBox="0 0 1000 1000" enable-background="new 0 0 1000 1000" xml:space="preserve">
<metadata> Svg Vector Icons : http://www.onlinewebfonts.com/icon </metadata>
<g><g><path fill="#959cb6" d="M696,128.7c-68.8,39.9-141.7,92-209.1,159.4c-43.1,43.1-77.7,85-105.7,124.2l-170.7,31.5L10,644.5l178.8,5.6l125.9-125.9c-44.4,92.1-48.4,153.2-48.4,153.2l56.3,56.3c0,0,63-6,155.8-50.9L349.8,811.2l5.6,178.9l200.6-200.5l31.7-171.6c39.6-27.8,81.5-62.3,124.2-104.8c67.4-67.4,119.5-140.3,159.4-209.1c-44-8.9-84.3-27.3-116.2-59C723.3,213,704.8,172.7,696,128.7L696,128.7z M762.4,93.1c4.8,43.1,19.1,77.8,42.9,101.4c23.7,23.9,58.4,38.2,101.6,42.9C970,109.8,990,10,990,10S890.2,29.9,762.4,93.1L762.4,93.1z"/></g></g>
</svg>
