<?xml version="1.0" encoding="utf-8"?>
<!-- Svg Vector Icons : http://www.onlinewebfonts.com/icon -->
<!DOCTYPE svg PUBLIC "-//W3C//DTD SVG 1.1//EN" "http://www.w3.org/Graphics/SVG/1.1/DTD/svg11.dtd">
<svg version="1.1" xmlns="http://www.w3.org/2000/svg" xmlns:xlink="http://www.w3.org/1999/xlink" x="0px" y="0px" viewBox="0 0 1000 1000" enable-background="new 0 0 1000 1000" xml:space="preserve">
<metadata> Svg Vector Icons : http://www.onlinewebfonts.com/icon </metadata>
<g fill="#959cb6"><g transform="translate(0.000000,511.000000) scale(0.100000,-0.100000)"><path fill="#959cb6" d="M1528,3579.7l-1428-1428v-2030v-2032.3l1430.3-1439.7L2963-4790h2027.7h2027.7l1442,1442L9900-1908.3v2023v2023l-1439.7,1435L7020.7,5010h-2030H2958.3L1528,3579.7z M7944.7,3057l1232-1232V110v-1715L7947-2834.7l-1232-1232H5000H3285L2055.3-2837l-1232,1232V110v1715L2053,3054.7l1232,1232h1715h1715L7944.7,3057z"/><path d="M2414.7,2693l-1078-1078V110v-1505L2417-2475.3l1078-1078h1505h1505L7585.3-2473l1078,1078V110v1505l-1078,1078L6505,3773.3H5000H3495L2414.7,2693z M4937,2742c23.3-11.7,63-56,86.3-95.7c44.3-70,46.7-126,46.7-1129.3c0-926.3,4.7-1057,37.3-1089.7c42-44.3,46.7-44.3,105-14c42,23.3,44.3,58.3,44.3,877.3c0,924,4.7,956.7,128.3,1054.7c126,100.3,329,51.3,415.3-95.7c21-37.3,30.3-310.3,39.7-1029c11.7-898.3,14-980,51.3-1003.3c30.3-18.7,53.7-18.7,81.7,0c37.3,23.3,44.3,88.7,53.7,630c9.4,429.3,21,618.3,42,655.7c74.7,130.7,301,165.7,422.4,63c121.3-100.3,126-158.7,112-1211c-14-1040.7-30.3-1213.3-182-1948.3c-137.7-655.7-322-896-737.4-956.7c-210-30.3-1029-30.3-1220.3,2.3c-189,30.4-396.7,140-511,268.3c-121.3,137.7-1148,2331-1162,2482.7c-23.3,256.7,275.3,441,499.3,303.3c95.7-58.3,109.7-79.3,312.7-518l168-368.7h84c340.7,0,744.3-247.3,910-557.7c193.7-366.3,175-758.3-58.3-1113c-91-135.4-98-184.3-35-219.3c65.3-35,170.3,63,259,242.7c100.3,203,140,368.7,140,588C5070-814,4622-310,3968.7-205c-77,11.7-91,25.7-156.3,165.7l-72.3,154V1153c0,1136.3,0,1136.3,140,1208.7c140,72.3,319.7,23.3,385-105c30.3-56,35-205.3,35-924c0-765.3,4.7-861,39.7-900.7c49-56,91-53.7,133,9.3c32.7,46.7,37.3,191.3,37.3,1106V2602l60.7,72.3C4661.7,2781.7,4806.3,2809.7,4937,2742z"/></g></g>
</svg>
